<?xml version="1.0" encoding="utf-8" ?>
<svg baseProfile="full" height="200mm" version="1.1" viewBox="0,0,200,200" width="200mm" xmlns="http://www.w3.org/2000/svg" xmlns:ev="http://www.w3.org/2001/xml-events" xmlns:xlink="http://www.w3.org/1999/xlink"><defs /><rect fill="#1a1a1a" height="200" width="200" x="0" y="0" /><text alignment-baseline="middle" fill="#e1ed5e" style="dominant-baseline: central; font-size:9.0px; font-family:Arial;" text-anchor="middle" x="100.0" y="100.0">2023</text><line stroke="#e1ed5e" stroke-width="0.3" x1="100.0" x2="100.0" y1="15.0" y2="10.0" /><path d="M 100.0 14.0 a86.0,86.0 0 0,1 42.46469731375804,11.215312516191453" fill="none" id="id13" stroke="none" /><text fill="#e1ed5e" style="font-size:6.75px; font-family:Arial;" text-anchor="middle"><textPath startOffset="22.20632615414155" xlink:href="#id13">January</textPath></text><line stroke="#e1ed5e" stroke-width="0.3" x1="143.23703022742887" x2="145.7803849466894" y1="26.81831364943548" y2="22.513508569990506" /><path d="M 143.74570117128098 25.957352633546492 a86.0,86.0 0 0,1 28.547481713284135,27.462654790039103" fill="none" id="id14" stroke="none" /><text fill="#e1ed5e" style="font-size:6.75px; font-family:Arial;" text-anchor="middle"><textPath startOffset="19.985693538727396" xlink:href="#id14">February</textPath></text><path d="M 113.6212207817346 84.01681056812373 l 20.512098123701875 -24.06896967678477 a52.62374852446115,52.62374852446115 0 0,0 0.6843748600230254,0.5934831346701047 l -20.923366782371666 23.71232154869499" fill="#8dff24" stroke="none" /><path d="M 114.42810811169701 84.74124197986012 l 25.33216088725762 -26.790575043761027 a57.870764657019194,57.870764657019194 0 0,0 0.7179192332436005,0.6906377335736869 l -25.78956336411364 26.35055422342504" fill="#53ff2b" stroke="none" /><path d="M 114.68862486808459 84.99185889309783 l 14.172494161838019 -14.480783199778797 a41.26209941852839,41.26209941852839 0 0,0 0.5033272705220861,0.5011658232655799 l -14.419657232527426 14.234681525863099" fill="#ffe615" stroke="none" /><path d="M 116.15771136456269 86.58626213691792 l 17.041631856235373 -14.147547095069477 a43.14882175490753,43.14882175490753 0 0,0 0.46950337314869645,0.5755556207765697 l -17.282633721460478 13.852107304684806" fill="#fffe18" stroke="none" /><path d="M 116.82858285166822 87.43820079747576 l 32.366046968521864 -24.159834882218654 a61.388842740348885,61.388842740348885 0 0,0 0.6248138508635239,0.852245390397918 l -32.77712343189902 23.599127048149242" fill="#2fff30" stroke="none" /><path d="M 117.04232023915458 87.72973835380427 l 36.412923437701515 -26.216858480160504 a65.86897215057056,65.86897215057056 0 0,0 0.6545725349673127,0.9258464299634077 l -36.85880859247271 25.586185549865302" fill="#35ff68" stroke="none" /><path d="M 117.45458315368197 88.32363383020206 l 19.5537859143124 -13.080642621544717 a44.525597866480126,44.525597866480126 0 0,0 0.4206680204480789,0.6407062555164054 l -19.776050570118404 12.742118302050638" fill="#efff19" stroke="none" /><path d="M 117.65298651832404 88.62581576622439 l 23.016876532854358 -14.830249482091984 a48.380885760503645,48.380885760503645 0 0,0 0.4450405713383954,0.7039473071329597 l -23.26874470043871 14.43185452724482" fill="#bfff1e" stroke="none" /><line stroke="#e1ed5e" stroke-width="0.3" x1="172.23445277983987" x2="176.4835382374775" y1="55.19839476539836" y2="52.563006222186495" /><path d="M 173.08426987136738 54.67131705675599 a86.0,86.0 0 0,1 12.851231095245387,41.99856678651699" fill="none" id="id15" stroke="none" /><text fill="#e1ed5e" style="font-size:6.75px; font-family:Arial;" text-anchor="middle"><textPath startOffset="22.20632615414155" xlink:href="#id15">March</textPath></text><path d="M 118.03404312379186 89.2402003453031 l 33.85323889801846 -20.19813669651923 a60.42088925807721,60.42088925807721 0 0,0 0.5252023235219933,0.8977410177335936 l -34.195900896010784 19.61241626643174" fill="#39ff2e" stroke="none" /><path d="M 118.21658344932153 89.55222093294921 l 14.12911302567591 -8.103487227246742 a37.287981462860145,37.287981462860145 0 0,0 0.31453718989404733,0.5595265638187122 l -14.266507856862392 7.859077153493236" fill="#ffb010" stroke="none" /><path d="M 118.3937258080291 89.86733742301442 l 34.49224236798272 -19.00094940448741 a60.379574170419275,60.379574170419275 0 0,0 0.49365161227137955,0.9146614648523168 l -34.814202079472565 18.404406956302637" fill="#39ff2e" stroke="none" /><path d="M 118.73160827565052 90.50648371742162 l 28.75987615338666 -14.576022972999752 a53.24268788527959,53.24268788527959 0 0,0 0.4072811758198594,0.8210539978186152 l -29.006517342159928 14.078809386682186" fill="#86ff25" stroke="none" /><path d="M 119.196687751892 91.48605970444005 l 18.013193146281363 -7.9890475358028255 a40.70532942770953,40.70532942770953 0 0,0 0.27855876179409406,0.6429520281454943 l -18.14804261791814 7.677796363070728" fill="#ffde14" stroke="none" /><path d="M 119.34039704204932 91.81776055985345 l 56.41040739139066 -23.865252568965012 a82.25099462248065,82.25099462248065 0 0,0 0.5404215947591585,1.3086737575656857 l -56.81285067303602 22.89070424094602" fill="#4be3ff" stroke="none" /><path d="M 119.7369772167798 92.82701384747503 l 24.005960971764168 -8.724457840591947 a46.54216762121278,46.54216762121278 0 0,0 0.26716737710336363,0.7553181522171277 l -24.15258142967734 8.309942061948204" fill="#d5ff1c" stroke="none" /><path d="M 119.85752413597 93.16781622104841 l 26.068744266089183 -8.969217435812599 a48.56857430157828,48.56857430157828 0 0,0 0.2651906746221823,0.7928863630141486 l -26.219272234483135 8.519157969876137" fill="#bdff1f" stroke="none" /><path d="M 120.18372546131832 94.20196356495316 l 18.97984454023488 -5.452206055156036 a40.74743146941809,40.74743146941809 0 0,0 0.18785192531810332,0.6758033235956765 l -19.070883236119343 5.124691428141407" fill="#ffdf14" stroke="none" /><path d="M 120.45610955862082 95.25157060432595 l 16.327223394609934 -3.7900006007755263 a37.761334324312514,37.761334324312514 0 0,0 0.14152518883885787,0.6344296712637961 l -16.390042970450832 3.508392759961766" fill="#ffb711" stroke="none" /><path d="M 120.53481517161879 95.60439243477599 l 36.02208091881185 -7.710755128718259 a57.83810606391816,57.83810606391816 0 0,0 0.20001161834784875,0.975327683744572 l -36.1494718330747 7.089551788810275" fill="#54ff2b" stroke="none" /><path d="M 120.67395015179393 96.31383870115 l 19.38427352672684 -3.456212206951786 a40.689983823722294,40.689983823722294 0 0,0 0.11700916085175367,0.6905946908558721 l -19.440894549098818 3.122031727780077" fill="#ffde14" stroke="none" /><path d="M 120.73433829027371 96.67025291283417 l 58.316079158830306 -9.36503456226207 a80.06326236173655,80.06326236173655 0 0,0 0.20680762548320608,1.3626038587081046 l -58.46864267775281 8.359831591161882" fill="#48f9ff" stroke="none" /><path d="M 120.78858239683441 97.02765380044208 l 21.132784431260585 -3.021560118495575 a42.34770253136887,42.34770253136887 0 0,0 0.09696414135318158,0.7224954796519641 l -21.181664571671604 2.6573462967789467" fill="#fff417" stroke="none" /><path d="M 120.87857604477298 97.74499172005257 l 28.96967463528878 -3.128894232531437 a50.13815415555458,50.13815415555458 0 0,0 0.08528947521066288,0.8588533759555286 l -29.01924123618167 2.6297653258714737" fill="#aaff21" stroke="none" /><path d="M 120.91429891909075 98.10471618934814 l 27.8933951520048 -2.5277395364878057 a49.00769466182835,49.00769466182835 0 0,0 0.06890368960509875,0.8407995398279943 l -27.93277332542939 2.047226079452043" fill="#b8ff1f" stroke="none" /><path d="M 120.96714384426684 98.82574320788733 l 26.421893422303906 -1.4797479352487497 a47.46329733747213,47.46329733747213 0 0,0 0.03866313137070676,0.8161175957910158 l -26.44345016190811 1.024719232834734" fill="#caff1d" stroke="none" /><path d="M 120.98425023603335 99.18683210126433 l 12.215375951678853 -0.4733622351603527 a33.22454422244568,33.22454422244568 0 0,0 0.017226618526948623,0.5716676031318045 l -12.221714264661447 0.26302448460354905" fill="#ff780b" stroke="none" /><line stroke="#e1ed5e" stroke-width="0.3" x1="184.98032266829074" x2="189.97916517819016" y1="98.17113171792111" y2="98.06355123074" /><path d="M 185.9800911702706 98.14961562048488 a86.0,86.0 0 0,1 -9.607161424134198,41.387399972396054" fill="none" id="id16" stroke="none" /><text fill="#e1ed5e" style="font-size:6.75px; font-family:Arial;" text-anchor="middle"><textPath startOffset="21.466115282336823" xlink:href="#id16">April</textPath></text><path d="M 120.9764740272857 100.99374915477107 l 29.28866601368994 1.3875347714595172 a50.32151444935076,50.32151444935076 0 0,0 -0.048437211232728594,0.8648789448383983 l -29.26044245156968 -1.8914854326333388" fill="#a8ff21" stroke="none" /><path d="M 120.95626037817324 101.35467743843564 l 33.57928202972847 2.170668570806611 a54.649368250776014,54.649368250776014 0 0,0 -0.06876306552406605,0.9382173965659648 l -33.53694240554007 -2.7483591038693462" fill="#76ff27" stroke="none" /><path d="M 120.92983693683757 101.71520430193887 l 47.087329118730594 3.858815991495316 a68.24517990643992,68.24517990643992 0 0,0 -0.10602507364720135,1.1699778527699758 l -47.013929448806316 -4.6687752328138625" fill="#38ff84" stroke="none" /><path d="M 120.81339534386255 102.79330883721812 l 31.27566525323848 4.197421453751803 a52.5560704761072,52.5560704761072 0 0,0 -0.128051486702305,0.8955917997519851 l -31.198779715519574 -4.735158725484197" fill="#8eff24" stroke="none" /><path d="M 120.76222939487914 103.15116336523771 l 31.70723136129857 4.812328386251396 a53.070344948192194,53.070344948192194 0 0,0 -0.144852336565316,0.9019956380645756 l -31.61969727037197 -5.357403254009177" fill="#88ff25" stroke="none" /><path d="M 120.64145759157962 103.86396538481128 l 34.952959291643 6.542998438962996 a56.560092685699296,56.560092685699296 0 0,0 -0.18737568757365475,0.9554245940960265 l -34.83515367109368 -7.1436867601269665" fill="#61ff29" stroke="none" /><path d="M 120.5718875245553 104.21870165774334 l 26.29230383803938 5.391794294764209 a47.839461373672016,47.839461373672016 0 0,0 -0.17237232532113178,0.8052661181984301 l -26.195597473993804 -5.843574232378807" fill="#c6ff1e" stroke="none" /><path d="M 120.49622156327973 104.57218783832717 l 4.035084409541759 0.9001251185234659 a25.134263104970927,25.134263104970927 0 0,0 -0.09783144961680522,0.4214553244622781 l -4.018992393994401 -0.969449100334309" fill="#ff0000" stroke="none" /><path d="M 120.41448212921028 104.9243191809786 l 38.28083561421582 9.233986533963765 a60.37878721636864,60.37878721636864 0 0,0 -0.2524083035325326,1.0082457032251848 l -38.11621599638823 -9.891560076586346" fill="#39ff2e" stroke="none" /><path d="M 120.23288151984713 105.62410040840565 l 38.64884621016746 10.743155469070956 a61.11419577667992,61.11419577667992 0 0,0 -0.2904593680617668,1.0111271649122326 l -38.4581942052196 -11.40684010948777" fill="#32ff2f" stroke="none" /><path d="M 120.13307415673323 105.97154293290107 l 26.465943314727085 7.849894930763164 a48.605561141957764,48.605561141957764 0 0,0 -0.24481747981597027,0.8000776890831729 l -26.326899062404983 -8.304299592398394" fill="#bcff1f" stroke="none" /><path d="M 119.9155931802556 106.66101706037122 l 45.29435109041738 15.149257299090998 a68.76063480960084,68.76063480960084 0 0,0 -0.3850895773225293,1.1192505681347436 l -45.02687068215162 -15.926680570315042" fill="#39ff8a" stroke="none" /><path d="M 119.54520255179757 107.68017299344265 l 37.6230897119443 14.783772988270707 a61.42346871857649,61.42346871857649 0 0,0 -0.39515000224393615,0.9807298995536126 l -37.36303709544298 -15.429202255667132" fill="#2fff31" stroke="none" /><path d="M 119.41010516605496 108.01547362559984 l 29.210989316768398 12.062784433322253 a52.60368119617016,52.60368119617016 0 0,0 -0.35281794676919204,0.8339574054257556 l -28.999020388806894 -12.563816364414173" fill="#8eff24" stroke="none" /><path d="M 119.12269723197855 108.67885076344098 l 23.1627911622278 10.512450483478448 a46.43671577842872,46.43671577842872 0 0,0 -0.33661175486053146,0.7250317735820606 l -22.97840479052744 -10.909602324339339" fill="#d7ff1c" stroke="none" /><path d="M 118.97047184881838 109.00673069616215 l 55.20312402921856 26.209135738971025 a82.10894941634241,82.10894941634241 0 0,0 -0.6171728699122289,1.2715589125849096 l -54.74379790269162 -27.15548360752121" fill="#4be4ff" stroke="none" /><path d="M 118.81262510543309 109.33194174019688 l 15.47969405297126 7.678652088627498 a38.27954356665063,38.27954356665063 0 0,0 -0.29789018712554827,0.5877656000480819 l -15.345225196059443 -7.943971900378274" fill="#ffbe11" stroke="none" /><line stroke="#e1ed5e" stroke-width="0.3" x1="174.80103733775053" x2="179.2010983576182" y1="140.37084112569926" y2="142.7455964860345" /><path d="M 175.68104954172406 140.8457921977663 a86.0,86.0 0 0,1 -30.038265399797805,32.042727171017184" fill="none" id="id17" stroke="none" /><text fill="#e1ed5e" style="font-size:6.75px; font-family:Arial;" text-anchor="middle"><textPath startOffset="22.206326154141568" xlink:href="#id17">May</textPath></text><path d="M 118.12598468904814 110.60418214915192 l 22.60316890801171 13.223453752193947 a47.18707646570192,47.18707646570192 0 0,0 -0.4161880467303858,0.6975551054118475 l -22.372199985583094 -13.6105709514919" fill="#ceff1d" stroke="none" /><path d="M 117.75023020441432 111.22182372390056 l 34.27831740945033 21.670999817517863 a61.55410309098063,61.55410309098063 0 0,0 -0.5739044773524611,0.8907124935979591 l -33.90020806872082 -22.257833911037274" fill="#30ff32" stroke="none" /><path d="M 117.14729908036423 112.12312394758627 l 32.39556619357432 22.903634121986443 a60.674288462379224,60.674288462379224 0 0,0 -0.6102683717374432,0.8476093927631534 l -31.996518029461274 -23.457877120200727" fill="#36ff2e" stroke="none" /><path d="M 116.93607887273984 112.41649034213515 l 9.687173518648855 7.102039222933327 a33.01167315175097,33.01167315175097 0 0,0 -0.3399239231719175,0.4553836446623997 l -9.563488328781846 -7.267735747105042" fill="#ff750a" stroke="none" /><path d="M 116.71984013943494 112.70617746262583 l 15.629209199547862 11.877356723140942 a40.63017531587461,40.63017531587461 0 0,0 -0.4279579902431513,0.5531933917069084 l -15.422444392086643 -12.144628108961102" fill="#ffdd14" stroke="none" /><path d="M 116.498646956653 112.99209946851258 l 24.75152548941052 19.49094868207799 a52.50452498579111,52.50452498579111 0 0,0 -0.5652539350169402,0.7052411956993803 l -24.412353642338722 -19.91411771135562" fill="#8fff24" stroke="none" /><path d="M 116.27256486870786 113.27417163493432 l 46.506559674017616 37.937231176774254 a81.01744414812225,81.01744414812225 0 0,0 -0.8908215205810888,1.073051907962573 l -45.84664215354299 -38.7321443418506" fill="#49efff" stroke="none" /><path d="M 116.0416608686014 113.55231037782055 l 16.232724863432626 13.713724995745014 a42.25012022909107,42.25012022909107 0 0,0 -0.47412177635811315,0.5515107389510786 l -15.994260577503733 -13.991112833857622" fill="#fff216" stroke="none" /><path d="M 115.56566222782051 114.09645910891815 l 33.459402560016215 30.301254973469977 a66.14086477506228,66.14086477506228 0 0,0 -0.7714972573771703,0.837307900324043 l -32.93285889464332 -30.872714128595355" fill="#36ff6b" stroke="none" /><path d="M 115.07121518719521 114.62390073753431 l 23.304183347614163 22.612513975273764 a53.47169151401215,53.47169151401215 0 0,0 -0.6466493978153213,0.6550524259482405 l -22.911493324743308 -23.01030689520267" fill="#84ff25" stroke="none" /><path d="M 114.55890576462653 115.13401014063108 l 9.256591039548914 9.622243932684842 a34.351855899969394,34.351855899969394 0 0,0 -0.4296667412901273,0.40627672233560286 l -9.089588463867978 -9.780155291766368" fill="#ff880c" stroke="none" /><path d="M 114.29624159901734 115.38237550388516 l 38.67836463216601 41.61689102183778 a77.81532811611945,77.81532811611945 0 0,0 -0.9889974348845757,0.903425707864208 l -37.95626764781457 -42.276509496288575" fill="#45ffee" stroke="none" /><path d="M 113.75828350139079 115.86535959552629 l 28.862053590616124 33.282266558483606 a65.05368775412057,65.05368775412057 0 0,0 -0.8523102560540734,0.7263572906854018 l -28.284877857985002 -33.774148239391955" fill="#34ff5e" stroke="none" /><path d="M 113.20401910651253 116.32954008644616 l 21.291811711729515 26.331792619738362 a54.86302627552136,54.86302627552136 0 0,0 -0.739455643530353,0.5874682849719246 l -20.83539857548181 -26.694394818715413" fill="#74ff27" stroke="none" /><path d="M 112.34349029814194 116.9893568818739 l 10.554925022071627 14.527607972308186 a38.9571110042408,38.9571110042408 0 0,0 -0.5459053883097887,0.38948899987200314 l -10.303292305912953 -14.707141234024407" fill="#ffc712" stroke="none" /><path d="M 112.04921762599082 117.19931262002967 l 13.761579036898226 19.643574159562597 a44.98439207799589,44.98439207799589 0 0,0 -0.6380138799931422,0.4388317643804453 l -13.421408272282202 -19.877546713308135" fill="#e9ff1a" stroke="none" /><line stroke="#e1ed5e" stroke-width="0.3" x1="143.8653032363475" x2="146.44561519142675" y1="172.8068346515853" y2="177.08958963109032" /><path d="M 144.38136562736335 173.6633856474863 a86.0,86.0 0 0,1 -40.68145358897372,12.25698825130547" fill="none" id="id18" stroke="none" /><text fill="#e1ed5e" style="font-size:6.75px; font-family:Arial;" text-anchor="middle"><textPath startOffset="21.466115282336833" xlink:href="#id18">June</textPath></text><path d="M 110.5260780823613 118.17145234162733 l 26.485237869805314 45.722180088547006 a73.8392427753246,73.8392427753246 0 0,0 -1.1053074769537294,0.6276224321674903 l -25.694281625930387 -46.17130568650912" fill="#40ffc4" stroke="none" /><path d="M 109.89434966115114 118.52300852407294 l 18.55368999765809 34.73398148935478 a60.37878721636864,60.37878721636864 0 0,0 -0.9209464209438002,0.4817956408219143 l -17.953052674187795 -35.04820654912141" fill="#39ff2e" stroke="none" /><path d="M 109.57404056367764 118.69057910512821 l 18.163655136637423 35.45934769250482 a60.84072924408691,60.84072924408691 0 0,0 -0.9362116147122801,0.469435939051046 l -17.55058961424238 -35.76675147246517" fill="#34ff2f" stroke="none" /><path d="M 109.2508944713604 118.85261126421891 l 8.709341212183569 17.748967383539107 a40.7706466139116,40.7706466139116 0 0,0 -0.6326970118529999,0.3037330146235316 l -8.402531532330336 -17.8962546746622" fill="#ffdf14" stroke="none" /><path d="M 108.92500713936063 119.00905698771935 l 9.498542989220297 20.230610705743995 a43.34949503781751,43.34949503781751 0 0,0 -0.6781760232021187,0.31131734981865544 l -9.148898970250759 -20.391115125896725" fill="#fdff18" stroke="none" /><path d="M 108.2653958097858 119.30500536409082 l 14.466752792366313 33.789155012631525 a57.75586936562759,57.75586936562759 0 0,0 -0.9172967054749079,0.3834300972834771 l -13.882984627393943 -34.03317015293497" fill="#55ff2b" stroke="none" /><path d="M 107.2578585660854 119.70592522655815 l 13.37575406142666 36.3167189031448 a59.70161325580378,59.70161325580378 0 0,0 -0.9673948185618361,0.3468733636772348 l -12.748639682235089 -36.54157980786199" fill="#40ff2d" stroke="none" /><path d="M 106.57524785965236 119.94407469862006 l 6.269053731568923 19.015325137672274 a41.022078433087046,41.022078433087046 0 0,0 -0.6725250468817692,0.21532128237054426 l -5.940807339596214 -19.120419266702527" fill="#ffe215" stroke="none" /><path d="M 105.88484417918355 120.15858648285463 l 8.713087552493288 29.846759508250646 a52.09255454028768,52.09255454028768 0 0,0 -0.8629226713512853,0.24387056642546145 l -8.198033713037397 -29.992318868014628" fill="#93ff23" stroke="none" /><line stroke="#e1ed5e" stroke-width="0.3" x1="102.19456741930631" x2="102.32365962044197" y1="184.97166512339345" y2="189.96999836594603" /><path d="M 102.22038585953345 185.97133177190398 a86.0,86.0 0 0,1 -42.740103519485714,-10.115201625700543" fill="none" id="id19" stroke="none" /><text fill="#e1ed5e" style="font-size:6.75px; font-family:Arial;" text-anchor="middle"><textPath startOffset="22.20632615414155" xlink:href="#id19">July</textPath></text><path d="M 99.09653310690486 120.98055641714683 l -0.2748133771416041 6.381791748398829 a27.38770602894242,27.38770602894242 0 0,0 -0.4708232692967637,-0.024336185087622562 l 0.38462471485185673 -6.376115756549004" fill="#ff2203" stroke="none" /><path d="M 98.73552117531835 120.96189622390904 l -1.1898631147329737 19.724954380291212 a40.760809688278755,40.760809688278755 0 0,0 -0.69999361306649,-0.04827565789543501 l 1.5292194885783938 -19.701550377879492" fill="#ffdf14" stroke="none" /><path d="M 98.37488393609728 120.93702456842531 l -1.5271793518679586 19.675266475222873 a40.734446727582736,40.734446727582736 0 0,0 -0.6986067834568278,-0.060278732860694566 l 1.8656304530663281 -19.646063490083513" fill="#ffdf14" stroke="none" /><path d="M 98.01472825383883 120.90594882070398 l -1.8763434883273862 19.758877349100622 a40.847768110873076,40.847768110873076 0 0,0 -0.6994059959087372,-0.07249629117451795 l 2.2161820808417168 -19.723651689470344" fill="#ffe015" stroke="none" /><path d="M 97.2962882734958 120.8252237178851 l -3.3106457090164114 25.50010671073521 a46.714117081274864,46.714117081274864 0 0,0 -0.7965233197502577,-0.11039087418036153 l 3.7490976199535004 -25.439341271062244" fill="#d3ff1c" stroke="none" /><path d="M 96.58105272829116 120.7198165907248 l -4.016613360783668 24.341847222959913 a45.67100948716828,45.67100948716828 0 0,0 -0.7745608096554641,-0.13466732513457488 l 4.4350231419111825 -24.269101319304333" fill="#e0ff1b" stroke="none" /><path d="M 96.22490169976321 120.6578951692458 l -2.4616146788142115 13.470318899730627 a34.69339395794168,34.69339395794168 0 0,0 -0.5865370674043798,-0.11241122493803238 l 2.6931193607902864 -13.425950476444125" fill="#ff8d0d" stroke="none" /><path d="M 95.86986931433489 120.58985236759428 l -5.432360934707524 27.081833037712272 a48.62130022297032,48.62130022297032 0 0,0 -0.8191729131091504,-0.17166564861107328 l 5.897725309246061 -26.984311408374655" fill="#bcff1f" stroke="none" /><path d="M 95.16358092515715 120.4354850818985 l -12.734374099698801 53.80698155280624 a76.29335898220609,76.29335898220609 0 0,0 -1.2753587174576437,-0.3134521434276544 l 13.658686101899656 -53.579808151064555" fill="#43ffde" stroke="none" /><path d="M 94.81253420990036 120.34920634021253 l -5.825438127246071 22.851821538700616 a44.582652035150616,44.582652035150616 0 0,0 -0.742002998623569,-0.19596973589679445 l 6.217931568681129 -22.748160453500237" fill="#eeff19" stroke="none" /><path d="M 94.11515582081647 120.15858648285463 l -9.50258017304315 32.55117355632803 a54.90985004153369,54.90985004153369 0 0,0 -0.9050320594813388,-0.27267873543053806 l 10.061487206964735 -32.38277945179177" fill="#74ff27" stroke="none" /><path d="M 93.76903079525671 120.05430185196036 l -6.2249760546316155 20.03501296809103 a41.97980151270056,41.97980151270056 0 0,0 -0.6882261713400883,-0.22034828659692984 l 6.568923571062644 -19.924891834834394" fill="#ffef16" stroke="none" /><path d="M 93.08242187328487 119.8279376855182 l -17.966537440299863 51.497703136163736 a75.54181786385695,75.54181786385695 0 0,0 -1.224066808263924,-0.4389068072324204 l 18.850323809193515 -51.18080878789136" fill="#42ffd6" stroke="none" /><path d="M 92.7421414339146 119.70592522655815 l -3.213183645086206 8.724165133934259 a30.297075154111837,30.297075154111837 0 0,0 -0.48782587302233105,-0.18445400357638303 l 3.3628797388688203 -8.667562880251243" fill="#ff4e07" stroke="none" /><path d="M 92.06813273071674 119.44442032107085 l -7.880989892428739 19.319697974263075 a41.86529969833428,41.86529969833428 0 0,0 -0.6649177288612745,-0.2779356645904383 l 8.212379080787477 -19.181177266652664" fill="#ffed16" stroke="none" /><path d="M 91.40352486487194 119.15986991738527 l -10.12016412501506 22.55587611549456 a45.72216150045905,45.72216150045905 0 0,0 -0.7152949216948354,-0.3283568155496583 l 10.506927042477315 -22.378332229610827" fill="#e0ff1b" stroke="none" /><line stroke="#e1ed5e" stroke-width="0.3" x1="58.666819895761336" x2="56.23545636021788" y1="174.27360380694188" y2="178.64263932499728" /><path d="M 58.180547188652646 175.14741091055294 a86.0,86.0 0 0,1 -31.652253787137756,-30.449443065178592" fill="none" id="id20" stroke="none" /><text fill="#e1ed5e" style="font-size:6.75px; font-family:Arial;" text-anchor="middle"><textPath startOffset="22.20632615414155" xlink:href="#id20">August</textPath></text><path d="M 89.7882731507175 118.34994917583269 l -9.462195499576552 17.003079799497613 a40.45861933283784,40.45861933283784 0 0,0 -0.6056293750449075,-0.343892165106267 l 9.753473641542667 -16.837684468596713" fill="#ffdb14" stroke="none" /><path d="M 89.4739219176387 118.17145234162733 l -17.258557913106035 29.79391375870067 a55.43160057709964,55.43160057709964 0 0,0 -0.8215283361864325,-0.48537342162665237 l 17.76885412032085 -29.492421764780268" fill="#6eff28" stroke="none" /><path d="M 89.1626897886671 117.98757091392108 l -18.278125326109762 30.33770087462495 a56.418440956586366,56.418440956586366 0 0,0 -0.8275263486675969,-0.508334272026111 l 18.797630874709668 -30.01857813577046" fill="#63ff29" stroke="none" /><path d="M 88.8546689885994 117.79835938074946 l -8.233752417713385 13.14876017882949 a36.51401215406811,36.51401215406811 0 0,0 -0.5298325706487795,-0.33816421474849967 l 8.458866790409088 -13.005081535257185" fill="#ffa60f" stroke="none" /><path d="M 88.24862548938628 117.40417183066458 l -31.764623436703268 47.044451177130185 a77.76417610282866,77.76417610282866 0 0,0 -1.1029297369143092,-0.7586051300999489 l 32.56971005824047 -46.49070525766514" fill="#45ffee" stroke="none" /><path d="M 87.95078237400918 117.19931262002967 l -5.025104194951696 7.172941902117043 a29.758011629432083,29.758011629432083 0 0,0 -0.41699855238556893,-0.29751739512884384 l 5.14783007518615 -7.08538024514398" fill="#ff4606" stroke="none" /><path d="M 87.36589467227662 116.77436683061367 l -10.522200493007528 13.970379884966308 a38.48966029816815,38.48966029816815 0 0,0 -0.5257894185518694,-0.40315290533457787 l 10.761118640052883 -13.787187637804363" fill="#ffc111" stroke="none" /><path d="M 87.07902340077011 116.55440617244103 l -15.197123428500067 19.470614466022976 a45.69933983299086,45.69933983299086 0 0,0 -0.6159455108329163,-0.48934436575209905 l 15.530026432050342 -19.20613618626575" fill="#e0ff1b" stroke="none" /><path d="M 86.79598089348748 116.32954008644616 l -22.290580537100485 27.56697983352723 a56.45149302671271,56.45149302671271 0 0,0 -0.7503475234288912,-0.617484928382654 l 22.761798189074064 -27.179199786287395" fill="#63ff29" stroke="none" /><path d="M 86.24171649860922 115.8653595955263 l -31.160500087703756 35.932719297278204 a68.56192891181743,68.56192891181743 0 0,0 -0.8849635776677633,-0.7808774643409605 l 31.774406018278107 -35.39101869116495" fill="#39ff88" stroke="none" /><path d="M 85.97065885151581 115.62618273729859 l -18.91491412233379 21.06783928109356 a49.31303283347178,49.31303283347178 0 0,0 -0.6267462228766331,-0.5725178145882849 l 19.27475989467728 -20.739128699918695" fill="#b4ff20" stroke="none" /><path d="M 85.44109423537348 115.13401014063109 l -27.28393371035872 28.361700812167314 a60.354785117824505,60.354785117824505 0 0,0 -0.7425076956923174,-0.7267000573891595 l 27.768091358426833 -27.887850651855587" fill="#39ff2e" stroke="none" /><path d="M 85.18274418774928 114.88116024355367 l -14.311874957776634 14.373599763074202 a41.28374065492065,41.28374065492065 0 0,0 -0.49925680819491036,-0.5057445108340589 l 14.557172391027079 -14.125114758259478" fill="#ffe615" stroke="none" /><path d="M 84.9287848128048 114.62390073753433 l -5.80564320440593 5.633331412513222 a29.089494163424124,29.089494163424124 0 0,0 -0.34560181987973204,-0.36236212644603094 l 5.901751575664619 -5.532562169484692" fill="#ff3c05" stroke="none" /><path d="M 84.67929136418377 114.36230785411682 l -11.533375799186606 10.811895047589204 a36.80872644602807,36.80872644602807 0 0,0 -0.4293537980979569,-0.4659787494303442 l 11.717776005280294 -10.611765043357519" fill="#ffaa0f" stroke="none" /><path d="M 84.4343377721795 114.09645910891817 l -37.93891376456359 34.357956551510384 a72.18427840685524,72.18427840685524 0 0,0 -0.8261358337908828,-0.9281723670698824 l 38.5247084480028 -33.699810014699636" fill="#3effb2" stroke="none" /><path d="M 83.72743513129214 113.27417163493432 l -24.960562165811872 20.361312980880108 a53.211996677305116,53.211996677305116 0 0,0 -0.5728704434540449,-0.7147439610663764 l 25.307350521320778 -19.928641186235474" fill="#87ff25" stroke="none" /><path d="M 83.50135304334701 112.99209946851258 l -26.794290678989537 21.0995538364009 a55.10462116906396,55.10462116906396 0 0,0 -0.5804174543989458,-0.7502678008708613 l 27.153514950606553 -20.63520804141679" fill="#71ff27" stroke="none" /><path d="M 83.28015986056508 112.70617746262583 l -20.628526091174958 15.676568144253487 a46.90928168583045,46.90928168583045 0 0,0 -0.4830287453327344,-0.6470959398026231 l 20.895316103202777 -15.319159324941557" fill="#d1ff1c" stroke="none" /><path d="M 83.06392112726016 112.41649034213515 l -21.431606051331208 15.712334097659394 a47.574257858610586,47.574257858610586 0 0,0 -0.47850688678438646,-0.664604214348492 l 21.698892730491202 -15.341096277859762" fill="#c9ff1d" stroke="none" /><path d="M 82.6465618267979 111.8261652097733 l -52.06031451960629 35.47849562931988 a84.0,84.0 0 0,0 -0.8039875783570785,-1.2018523431767072 l 52.6633052033741 -34.57710637193735" fill="#4dd2ff" stroke="none" /><path d="M 82.24976979558568 111.22182372390057 l -13.920390576645481 8.800571452876909 a37.46898089450444,37.46898089450444 0 0,0 -0.3399602750480419,-0.5481242090855518 l 14.069815491361478 -8.559650912426093" fill="#ffb310" stroke="none" /><path d="M 82.05923443525364 110.91462005526583 l -30.278592539801746 18.420581451080043 a56.44165610107987,56.44165610107987 0 0,0 -0.49781305319921726,-0.8343633113152112 l 30.591186468699195 -17.89665604587872" fill="#63ff29" stroke="none" /><line stroke="#e1ed5e" stroke-width="0.3" x1="26.63291911575756" x2="22.317208475507996" y1="142.92168965132927" y2="145.44649492493687" /><path d="M 25.769776987707644 143.4266507060508 a86.0,86.0 0 0,1 -11.730757126820373,-40.83630448921669" fill="none" id="id21" stroke="none" /><text fill="#e1ed5e" style="font-size:6.75px; font-family:Arial;" text-anchor="middle"><textPath startOffset="21.46611528233685" xlink:href="#id21">September</textPath></text><path d="M 81.87401531095188 110.60418214915194 l -29.64974154190389 17.345885775551594 a55.350937786910336,55.350937786910336 0 0,0 -0.4740359843842752,-0.8265216953860288 l 29.94392952244054 -16.832944234307256" fill="#6fff28" stroke="none" /><path d="M 81.69416730710424 110.29060199501025 l -20.61888614462595 11.590882231602684 a44.65347789970707,44.65347789970707 0 0,0 -0.37088666408306004,-0.6732670266246923 l 20.815349218160524 -11.234244686580169" fill="#edff1a" stroke="none" /><path d="M 81.51974371655577 109.97397251340807 l -54.645745364873484 29.49283569904931 a83.09657674987977,83.09657674987977 0 0,0 -0.6685218198566875,-1.2645913441430898 l 55.145319692955056 -28.547829339820094" fill="#4cdbff" stroke="none" /><path d="M 81.18737489456691 109.33194174019688 l -32.81243949240433 16.27650431456378 a57.62759585537534,57.62759585537534 0 0,0 -0.4331584921378151,-0.8924347911112973 l 33.087751241156866 -15.7092805674872" fill="#56ff2b" stroke="none" /><path d="M 81.02952815118164 109.00673069616217 l -27.025200238662723 12.830924950064123 a50.91645171162506,50.91645171162506 0 0,0 -0.369084589093266,-0.7949753696004034 l 27.242059444595817 -12.363829513184893" fill="#a1ff22" stroke="none" /><path d="M 80.87730276802145 108.67885076344099 l -17.97601139450188 8.15842651913675 a40.74074235998776,40.74074235998776 0 0,0 -0.28432947654867635,-0.6410879088276404 l 18.11378195578184 -7.847790273816414" fill="#ffdf14" stroke="none" /><path d="M 80.73074385275274 108.34839909993369 l -25.739117313687203 11.151464393469643 a49.050977134612864,49.050977134612864 0 0,0 -0.3289896190937536,-0.7776342775752089 l 25.927257913973264 -10.706755590228276" fill="#b7ff1f" stroke="none" /><path d="M 80.45479744820244 107.68017299344265 l -18.32850267587545 7.202077895506577 a40.69273816289949,40.69273816289949 0 0,0 -0.2505620868317345,-0.6541385430868498 l 18.44975904230069 -6.88551578558657" fill="#ffde14" stroke="none" /><path d="M 79.97269907076064 106.31721596034903 l -30.139830180354426 9.507013298010886 a52.60368119617016,52.60368119617016 0 0,0 -0.2649552922941666,-0.865889225427955 l 30.29901224515472 -8.986797100030882" fill="#8eff24" stroke="none" /><path d="M 79.86692584326677 105.97154293290107 l -17.359150966586792 5.148787237790822 a39.10663227386001,39.10663227386001 0 0,0 -0.1858633260723213,-0.6470146210353983 l 17.44520692954522 -4.849215141250828" fill="#ffc912" stroke="none" /><path d="M 79.76711848015287 105.62410040840567 l -23.89982355345458 6.6433941836685575 a45.805972106850874,45.805972106850874 0 0,0 -0.20462601706565664,-0.7614895322480953 l 24.01063764686201 -6.231013718244923" fill="#dfff1b" stroke="none" /><path d="M 79.67330655649465 105.27499134158121 l -23.06381650589316 5.9853036456982975 a44.82778822192104,44.82778822192104 0 0,0 -0.18739869576484755,-0.7485646357532 l 23.163426515953066 -5.587411170547705" fill="#ebff1a" stroke="none" /><path d="M 79.18660465613746 102.79330883721812 l -32.69558466752613 4.387984953005045 a53.988720325274336,53.988720325274336 0 0,0 -0.1156862348729219,-0.9221331166389727 l 32.76627241164589 -3.8245340820786633" fill="#7eff26" stroke="none" /><path d="M 79.1416061653843 102.43462659150553 l -19.626777922451907 2.2908703236907457 a40.76002273422813,40.76002273422813 0 0,0 -0.07534334634797801,-0.6975858138448329 l 19.663303570300936 -1.9526881879611306" fill="#ffdf14" stroke="none" /><path d="M 79.10278846688536 102.07522291339032 l -19.90371593199999 1.9765626288581644 a41.001617627770734,41.001617627770734 0 0,0 -0.06369972992376213,-0.7029212116958405 l 19.934790258200827 -1.6336600286137577" fill="#ffe215" stroke="none" /><path d="M 79.0235259727143 100.99374915477108 l -23.641521617164265 1.1200043483952102 a44.66803654964369,44.66803654964369 0 0,0 -0.029774154353315072,-0.7683386253781764 l 23.657297904368782 -0.712888476003037" fill="#edff1a" stroke="none" /><line stroke="#e1ed5e" stroke-width="0.3" x1="15.007084014347285" x2="10.007500721073583" y1="101.09737516637583" y2="101.16192664675087" /><path d="M 14.007167355692545 101.11028546245083 a86.0,86.0 0 0,1 10.666146001902534,-42.60595125391555" fill="none" id="id22" stroke="none" /><text fill="#e1ed5e" style="font-size:6.75px; font-family:Arial;" text-anchor="middle"><textPath startOffset="22.20632615414155" xlink:href="#id22">October</textPath></text><line stroke="#e1ed5e" stroke-width="0.3" x1="26.266209847984243" x2="21.928928074336255" y1="57.711370442889674" y2="55.22380399835377" /><path d="M 25.398753493254645 57.213857153982495 a86.0,86.0 0 0,1 29.58750427330803,-30.492523968695096" fill="none" id="id23" stroke="none" /><text fill="#e1ed5e" style="font-size:6.75px; font-family:Arial;" text-anchor="middle"><textPath startOffset="21.46611528233685" xlink:href="#id23">November</textPath></text><line stroke="#e1ed5e" stroke-width="0.3" x1="56.76296977257108" x2="54.21961505331056" y1="26.818313649435495" y2="22.513508569990535" /><path d="M 56.25429882871898 25.957352633546506 a86.0,86.0 0 0,1 42.26535254187918,-11.944610805530505" fill="none" id="id24" stroke="none" /><text fill="#e1ed5e" style="font-size:6.75px; font-family:Arial;" text-anchor="middle"><textPath startOffset="22.20632615414155" xlink:href="#id24">December</textPath></text></svg>